/* XPM */
static char *c50[] = {
/* columns rows colors chars-per-pixel */
"32 32 2 1 ",
"  c none",
"x c #BF0000",
/* pixels */
"                                ",
"                                ",
"                                ",
"                                ",
"                                ",
"                                ",
"      xx                xx      ",
"      xxx              xxx      ",
"       xxx            xxx       ",
"        xxx          xxx        ",
"         xxx        xxx         ",
"          xxx      xxx          ",
"           xxx    xxx           ",
"            xxxxxxxx            ",
"            xxxxxxxx            ",
"            xxxxxxxx            ",
"            xxxxxxxx            ",
"            xxxxxxxx            ",
"            xxxxxxxx            ",
"           xxx    xxx           ",
"          xxx      xxx          ",
"         xxx        xxx         ",
"        xxx          xxx        ",
"       xxx            xxx       ",
"      xxx              xxx      ",
"      xx                xx      ",
"                                ",
"                                ",
"                                ",
"                                ",
"                                ",
"                                "
};