/* XPM */
static char *c50[] = {
/* columns rows colors chars-per-pixel */
"32 32 2 1 ",
"  c none",
"x c #00FFFF",
/* pixels */
"                                ",
"                                ",
"                                ",
"             xxxxxx             ",
"             xxxxxx             ",
"             xxxxxx             ",
"             xxxxxx             ",
"             xxxxxx             ",
"             xxxxxx             ",
"             xxxxxx             ",
"             xxxxxx             ",
"             xxxxxx             ",
"             xxxxxx             ",
"             xxxxxx             ",
"             xxxxxx             ",
"             xxxxxx             ",
"             xxxxxx             ",
"             xxxxxx             ",
"             xxxxxx             ",
"             xxxxxx             ",
"             xxxxxx             ",
"             xxxxxx             ",
"             xxxxxx             ",
"             xxxxxx             ",
"             xxxxxx             ",
"             xxxxxx             ",
"             xxxxxx             ",
"             xxxxxx             ",
"             xxxxxx             ",
"                                ",
"                                ",
"                                "
};