/* XPM */
static char *c50[] = {
/* columns rows colors chars-per-pixel */
"32 32 2 1 ",
"  c none",
"x c #FFFF00",
/* pixels */
"                                ",
"                                ",
"                                ",
"                                ",
"                                ",
"                                ",
"                                ",
"                                ",
"               xx               ",
"               xx               ",
"               xx               ",
"               xx               ",
"               xx               ",
"               xx               ",
"               xx               ",
"               xx               ",
"               xx               ",
"               xx               ",
"               xx               ",
"               xx               ",
"               xx               ",
"               xx               ",
"               xx               ",
"               xx               ",
"                                ",
"                                ",
"                                ",
"                                ",
"                                ",
"                                ",
"                                ",
"                                "
};