/* XPM */
static char *c50[] = {
/* columns rows colors chars-per-pixel */
"32 32 2 1 ",
"  c none",
"x c #FF00FF",
/* pixels */
"            xxxxxxxx            ",
"            xxxxxxxx            ",
"            xxxxxxxx            ",
"            xxxxxxxx            ",
"            xxxxxxxx            ",
"            xxxxxxxx            ",
"            xxxxxxxx            ",
"            xxxxxxxx            ",
"            xxxxxxxx            ",
"            xxxxxxxx            ",
"            xxxxxxxx            ",
"            xxxxxxxx            ",
"xxxxxxxxxxxxxxxxxxxxxxxxxxxxxxxx",
"xxxxxxxxxxxxxxxxxxxxxxxxxxxxxxxx",
"xxxxxxxxxxxxxxxxxxxxxxxxxxxxxxxx",
"xxxxxxxxxxxxxxxxxxxxxxxxxxxxxxxx",
"xxxxxxxxxxxxxxxxxxxxxxxxxxxxxxxx",
"xxxxxxxxxxxxxxxxxxxxxxxxxxxxxxxx",
"xxxxxxxxxxxxxxxxxxxxxxxxxxxxxxxx",
"xxxxxxxxxxxxxxxxxxxxxxxxxxxxxxxx",
"            xxxxxxxx            ",
"            xxxxxxxx            ",
"            xxxxxxxx            ",
"            xxxxxxxx            ",
"            xxxxxxxx            ",
"            xxxxxxxx            ",
"            xxxxxxxx            ",
"            xxxxxxxx            ",
"            xxxxxxxx            ",
"            xxxxxxxx            ",
"            xxxxxxxx            ",
"            xxxxxxxx            "
};