/* XPM */
static char *c50[] = {
/* columns rows colors chars-per-pixel */
"32 32 2 1 ",
"  c none",
"x c #FF00FF",
/* pixels */
"                                ",
"                                ",
"                                ",
"                                ",
"                                ",
"                                ",
"                                ",
"                                ",
"                                ",
"                                ",
"          xxxxxxxxxxxx          ",
"          xxxxxxxxxxxx          ",
"          xxxxxxxxxxxx          ",
"          xxxxxxxxxxxx          ",
"    xxxxxxxxxxxxxxxxxxxxxxxx    ",
"    xxxxxxxxxxxxxxxxxxxxxxxx    ",
"    xxxxxxxxxxxxxxxxxxxxxxxx    ",
"    xxxxxxxxxxxxxxxxxxxxxxxx    ",
"    xxxxxxxxxxxxxxxxxxxxxxxx    ",
"    xxxxxxxxxxxxxxxxxxxxxxxx    ",
"    xxxxxxxxxxxxxxxxxxxxxxxx    ",
"    xxxxxxxxxxxxxxxxxxxxxxxx    ",
"    xxxxxxxxxxxxxxxxxxxxxxxx    ",
"    xxxxxxxxxxxxxxxxxxxxxxxx    ",
"    xxxxxxxxxxxxxxxxxxxxxxxx    ",
"    xxxxxx            xxxxxx    ",
"    xxxxxx            xxxxxx    ",
"    xxxxxx            xxxxxx    ",
"    xxxxxx            xxxxxx    ",
"    xxxxxx            xxxxxx    ",
"                                ",
"                                "
};